<?xml version="1.0" encoding="UTF-8" standalone="no"?>
<!DOCTYPE svg PUBLIC "-//W3C//DTD SVG 1.1//EN" "http://www.w3.org/Graphics/SVG/1.1/DTD/svg11.dtd">
<svg width="100%" height="100%" viewBox="0 0 252 28" version="1.1" xmlns="http://www.w3.org/2000/svg" xmlns:xlink="http://www.w3.org/1999/xlink" xml:space="preserve" xmlns:serif="http://www.serif.com/" style="fill-rule:evenodd;clip-rule:evenodd;stroke-linejoin:round;stroke-miterlimit:2;">
    <g transform="matrix(1.11695,0,0,1.11695,7.51483,14.3466)">
        <path d="M0,-1.129L0,-6.33L4.94,-6.33C5.872,-6.33 6.57,-6.102 7.077,-5.631C7.567,-5.175 7.806,-4.552 7.806,-3.729C7.806,-2.89 7.569,-2.264 7.081,-1.817C6.574,-1.354 5.874,-1.129 4.94,-1.129L0,-1.129ZM8.219,9.413L13.305,9.413L13.501,8.976L7.943,2.557C9.095,2.142 10.05,1.479 10.789,0.579C11.747,-0.587 12.232,-2.036 12.232,-3.729C12.232,-5.065 11.928,-6.265 11.329,-7.297C10.725,-8.338 9.853,-9.151 8.738,-9.712C7.648,-10.263 6.379,-10.542 4.966,-10.542L-4.426,-10.542L-4.426,9.413L0.025,9.413L0.025,3.057L2.822,3.057L8.219,9.413Z" style="fill:rgb(234,179,8);fill-rule:nonzero;"/>
    </g>
    <g transform="matrix(1.11695,0,0,1.11695,10.0864,10.5128)">
        <path d="M0,-0.595L2.638,-0.595C2.954,-0.595 3.122,-0.55 3.183,-0.524C3.191,-0.485 3.201,-0.413 3.201,-0.296C3.201,-0.186 3.193,-0.112 3.185,-0.067C3.117,-0.042 2.956,0.001 2.638,0.001L0,0.001L0,-0.595ZM4.778,1.615C5.267,1.169 5.504,0.543 5.504,-0.296C5.504,-1.12 5.265,-1.742 4.774,-2.199C4.268,-2.669 3.569,-2.898 2.638,-2.898L-2.302,-2.898L-2.302,2.303L2.638,2.303C3.572,2.303 4.271,2.078 4.778,1.615" style="fill:rgb(227,6,19);fill-rule:nonzero;"/>
    </g>
    <g transform="matrix(1.11695,0,0,1.11695,34.4711,11.5246)">
        <path d="M0,3.924L2.782,-2.517L5.565,3.924L0,3.924ZM0.646,-8.015L-8.305,11.939L-3.482,11.939L-1.781,8.084L7.345,8.084L9.047,11.939L13.895,11.939L4.972,-8.015L0.646,-8.015Z" style="fill:rgb(234,179,8);fill-rule:nonzero;"/>
    </g>
    <g transform="matrix(1.11695,0,0,1.11695,34.4711,8.71321)">
        <path d="M0,6.441L5.565,6.441L2.782,0L0,6.441Z" style="fill:rgb(227,6,19);fill-rule:nonzero;"/>
    </g>
    <g transform="matrix(1.11695,0,0,1.11695,67.468,10.3285)">
        <path d="M0,6.066C-0.468,6.937 -1.104,7.594 -1.949,8.074C-2.79,8.554 -3.774,8.797 -4.874,8.797L-8.22,8.797L-8.22,-2.733L-4.874,-2.733C-3.776,-2.733 -2.792,-2.489 -1.949,-2.009C-1.104,-1.528 -0.468,-0.871 0,-0.001C0.468,0.871 0.705,1.891 0.705,3.033C0.705,4.174 0.468,5.195 0,6.066M3.93,8.236C4.761,6.733 5.183,4.982 5.183,3.033C5.183,1.084 4.761,-0.667 3.93,-2.172C3.089,-3.689 1.885,-4.878 0.351,-5.708C-1.168,-6.528 -2.926,-6.944 -4.874,-6.944L-12.671,-6.944L-12.671,13.01L-4.874,13.01C-2.928,13.01 -1.169,12.594 0.351,11.774C1.886,10.942 3.09,9.753 3.93,8.236" style="fill:rgb(234,179,8);fill-rule:nonzero;"/>
    </g>
    <g transform="matrix(1.11695,0,0,1.11695,64.0189,10.3184)">
        <path d="M0,6.082C-0.491,6.362 -1.091,6.503 -1.786,6.503L-2.829,6.503L-2.829,-0.421L-1.786,-0.421C-1.093,-0.421 -0.492,-0.279 -0.002,0C0.469,0.268 0.795,0.606 1.059,1.098C1.345,1.63 1.49,2.284 1.49,3.042C1.49,3.799 1.345,4.454 1.059,4.985C0.795,5.478 0.468,5.816 0,6.082M1.139,-2C0.296,-2.48 -0.688,-2.724 -1.786,-2.724L-5.132,-2.724L-5.132,8.806L-1.786,8.806C-0.686,8.806 0.298,8.563 1.139,8.083C1.983,7.603 2.62,6.946 3.088,6.075C3.556,5.204 3.792,4.184 3.792,3.042C3.792,1.9 3.556,0.88 3.088,0.008C2.62,-0.862 1.983,-1.519 1.139,-2" style="fill:rgb(227,6,19);fill-rule:nonzero;"/>
    </g>
    <g transform="matrix(-1.11695,0,0,1.11695,251.459,-213.315)">
        <rect x="150.769" y="193.283" width="4.451" height="19.954" style="fill:rgb(234,179,8);"/>
    </g>
    <g transform="matrix(1.11695,0,0,1.11695,95.6562,11.5246)">
        <path d="M0,3.924L2.782,-2.517L5.566,3.924L0,3.924ZM0.646,-8.015L-8.305,11.939L-3.482,11.939L-1.781,8.084L7.345,8.084L9.047,11.939L13.895,11.939L4.972,-8.015L0.646,-8.015Z" style="fill:rgb(234,179,8);fill-rule:nonzero;"/>
    </g>
    <g transform="matrix(1.11695,0,0,1.11695,95.6562,8.71321)">
        <path d="M0,6.441L5.566,6.441L2.782,0L0,6.441Z" style="fill:rgb(227,6,19);fill-rule:nonzero;"/>
    </g>
    <g transform="matrix(1.11695,0,0,1.11695,128.865,11.5068)">
        <path d="M0,3.956L-9.038,-7.999L-12.86,-7.999L-12.86,11.955L-8.409,11.955L-8.426,-0.002L0.613,11.955L4.436,11.955L4.436,-7.999L-0.017,-7.999L0,3.956Z" style="fill:rgb(234,179,8);fill-rule:nonzero;"/>
    </g>
    <g transform="matrix(1.11695,0,0,1.11695,137.846,20.1568)">
        <path d="M0,-11.532L6.036,-11.532L6.036,4.211L10.489,4.211L10.489,-11.532L16.524,-11.532L16.524,-15.743L0,-15.743L0,-11.532Z" style="fill:rgb(234,179,8);fill-rule:nonzero;"/>
    </g>
    <g transform="matrix(1.11695,0,0,1.11695,156.302,20.1557)">
        <path d="M0,-11.531L-6.035,-11.531L-6.035,4.212L-10.488,4.212L-10.488,-11.531L-16.524,-11.531L-16.524,-15.742L0,-15.742L0,-11.531ZM-70.027,-15.742L-65.576,-15.742L-65.576,4.212L-70.027,4.212L-70.027,-15.742ZM-45.25,4.212L-46.952,0.356L-56.077,0.356L-57.779,4.212L-62.601,4.212L-53.65,-15.742L-49.324,-15.742L-40.402,4.212L-45.25,4.212ZM-20.129,4.212L-23.952,4.212L-32.991,-7.745L-32.974,4.212L-37.425,4.212L-37.425,-15.742L-33.603,-15.742L-24.565,-3.787L-24.582,-15.742L-20.129,-15.742L-20.129,4.212ZM-133.184,4.212L-137.635,4.212L-137.635,-15.742L-128.243,-15.742C-126.83,-15.742 -125.561,-15.464 -124.471,-14.913C-123.356,-14.352 -122.484,-13.539 -121.88,-12.498C-121.281,-11.466 -120.977,-10.266 -120.977,-8.929C-120.977,-7.237 -121.462,-5.788 -122.42,-4.622C-123.159,-3.722 -124.114,-3.059 -125.266,-2.644L-119.708,3.775L-119.904,4.212L-124.99,4.212L-130.387,-2.144L-133.184,-2.144L-133.184,4.212ZM-100.028,4.212L-101.73,0.356L-110.856,0.356L-112.558,4.212L-117.38,4.212L-108.429,-15.742L-104.103,-15.742L-95.181,4.212L-100.028,4.212ZM-84.407,4.212L-92.204,4.212L-92.204,-15.742L-84.407,-15.742C-82.459,-15.742 -80.701,-15.326 -79.182,-14.506C-77.648,-13.677 -76.444,-12.488 -75.604,-10.97C-74.772,-9.466 -74.351,-7.715 -74.351,-5.765C-74.351,-3.817 -74.772,-2.066 -75.604,-0.562C-76.443,0.955 -77.647,2.144 -79.182,2.975C-80.703,3.796 -82.461,4.212 -84.407,4.212M2.303,-18.045L-26.888,-18.045L-26.885,-15.739L-26.877,-10.665L-31.766,-17.131L-32.457,-18.045L-39.728,-18.045L-39.728,0.077L-47.222,-16.682L-47.832,-18.045L-55.141,-18.045L-55.751,-16.685L-63.273,0.085L-63.273,-18.045L-72.33,-18.045L-72.33,-8.614C-72.582,-9.854 -72.998,-11.016 -73.588,-12.084C-74.647,-13.995 -76.16,-15.49 -78.086,-16.531C-79.948,-17.536 -82.074,-18.045 -84.407,-18.045L-94.507,-18.045L-94.507,0.077L-102.001,-16.682L-102.61,-18.045L-109.919,-18.045L-110.53,-16.685L-118.668,1.458L-121.718,-2.064C-121.328,-2.395 -120.969,-2.76 -120.64,-3.16C-119.336,-4.748 -118.674,-6.69 -118.674,-8.929C-118.674,-10.677 -119.083,-12.266 -119.888,-13.654C-120.722,-15.088 -121.914,-16.203 -123.434,-16.969C-124.848,-17.683 -126.466,-18.045 -128.243,-18.045L-139.937,-18.045L-139.937,6.514L-130.881,6.514L-130.881,0.833L-126.745,5.703L-126.055,6.514L-111.057,6.514L-110.451,5.141L-109.355,2.659L-103.231,2.659L-102.135,5.141L-101.529,6.514L-84.407,6.514C-82.075,6.514 -79.949,6.006 -78.089,5.002C-76.158,3.957 -74.645,2.461 -73.589,0.553C-72.999,-0.515 -72.582,-1.677 -72.33,-2.917L-72.33,6.514L-56.278,6.514L-55.672,5.141L-54.577,2.659L-48.452,2.659L-47.356,5.141L-46.75,6.514L-30.667,6.514L-30.671,4.209L-30.678,-0.867L-25.789,5.6L-25.098,6.514L-17.826,6.514L-17.826,-9.228L-12.791,-9.228L-12.791,6.514L-3.732,6.514L-3.732,-9.228L2.303,-9.228L2.303,-18.045Z" style="fill:rgb(227,6,19);fill-rule:nonzero;"/>
    </g>
    <g transform="matrix(1.11695,0,0,1.11695,174.825,11.5068)">
        <path d="M0,3.956L-9.038,-7.999L-12.86,-7.999L-12.86,11.955L-8.409,11.955L-8.427,-0.002L0.612,11.955L4.435,11.955L4.435,-7.999L-0.017,-7.999L0,3.956Z" style="fill:rgb(234,179,8);fill-rule:nonzero;"/>
    </g>
    <g transform="matrix(1.11695,0,0,1.11695,179.778,2.57233)">
        <path d="M0,19.954L-3.822,19.954L-12.861,7.997L-12.844,19.954L-17.295,19.954L-17.295,0L-13.473,0L-4.435,11.955L-4.451,0L0,0L0,19.954ZM2.303,-2.303L-6.758,-2.303L-6.754,0.003L-6.747,5.078L-11.636,-1.389L-12.326,-2.303L-19.598,-2.303L-19.598,22.257L-10.538,22.257L-10.541,19.951L-10.549,14.875L-5.659,21.343L-4.968,22.257L2.303,22.257L2.303,-2.303Z" style="fill:rgb(227,6,19);fill-rule:nonzero;"/>
    </g>
    <g transform="matrix(1.11695,0,0,1.11695,189.499,11.5715)">
        <path d="M0,3.84L10.158,3.84L10.158,-0.267L0,-0.267L0,-3.899L10.61,-3.899L10.61,-8.057L-4.426,-8.057L-4.426,11.897L10.771,11.897L10.771,7.712L0,7.712L0,3.84Z" style="fill:rgb(234,179,8);fill-rule:nonzero;"/>
    </g>
    <g transform="matrix(1.11695,0,0,1.11695,201.529,2.57233)">
        <path d="M0,19.954L-15.196,19.954L-15.196,0L-0.16,0L-0.16,4.158L-10.771,4.158L-10.771,7.79L-0.612,7.79L-0.612,11.897L-10.771,11.897L-10.771,15.768L0,15.768L0,19.954ZM1.69,13.465L1.69,6.461L2.143,6.461L2.143,-2.303L-17.499,-2.303L-17.499,22.257L2.303,22.257L2.303,13.465L1.69,13.465Z" style="fill:rgb(227,6,19);fill-rule:nonzero;"/>
    </g>
    <g transform="matrix(1.11695,0,0,1.11695,218.031,15.1157)">
        <path d="M0,-2.506C-0.507,-2.043 -1.206,-1.818 -2.14,-1.818L-7.08,-1.818L-7.08,-7.019L-2.14,-7.019C-1.209,-7.019 -0.511,-6.79 -0.004,-6.32C0.488,-5.862 0.727,-5.24 0.727,-4.417C0.727,-3.578 0.489,-2.953 0,-2.506M3.709,-0.11C4.667,-1.274 5.151,-2.724 5.151,-4.417C5.151,-5.754 4.848,-6.954 4.249,-7.986C3.645,-9.027 2.773,-9.839 1.659,-10.401C0.567,-10.951 -0.701,-11.23 -2.113,-11.23L-11.506,-11.23L-11.506,8.724L-7.055,8.724L-7.055,2.369L-4.259,2.369L1.14,8.724L6.799,8.724L0.863,1.869C2.016,1.453 2.97,0.79 3.709,-0.11" style="fill:rgb(234,179,8);fill-rule:nonzero;"/>
    </g>
    <g transform="matrix(1.11695,0,0,1.11695,212.695,10.5128)">
        <path d="M0,-0.595L2.638,-0.595C2.954,-0.595 3.122,-0.55 3.183,-0.524C3.191,-0.485 3.201,-0.413 3.201,-0.296C3.201,-0.186 3.192,-0.112 3.185,-0.067C3.118,-0.042 2.956,0.001 2.638,0.001L0,0.001L0,-0.595ZM2.638,-2.898L-2.303,-2.898L-2.303,2.303L2.638,2.303C3.571,2.303 4.271,2.078 4.777,1.615C5.267,1.168 5.504,0.543 5.504,-0.296C5.504,-1.119 5.266,-1.741 4.773,-2.199C4.267,-2.669 3.568,-2.898 2.638,-2.898" style="fill:rgb(227,6,19);fill-rule:nonzero;"/>
    </g>
    <g transform="matrix(1.11695,0,0,1.11695,243.213,10.3285)">
        <path d="M0,6.066C-0.466,6.936 -1.104,7.593 -1.948,8.074C-2.79,8.554 -3.773,8.797 -4.874,8.797L-8.219,8.797L-8.219,-2.733L-4.874,-2.733C-3.775,-2.733 -2.791,-2.489 -1.948,-2.009C-1.104,-1.528 -0.466,-0.871 0,-0.001C0.468,0.871 0.705,1.893 0.705,3.033C0.705,4.174 0.469,5.194 0,6.066M3.93,8.236C4.762,6.732 5.184,4.981 5.184,3.033C5.184,1.085 4.762,-0.666 3.93,-2.172C3.089,-3.689 1.885,-4.878 0.352,-5.708C-1.168,-6.528 -2.926,-6.944 -4.874,-6.944L-12.671,-6.944L-12.671,13.01L-4.874,13.01C-2.927,13.01 -1.169,12.594 0.352,11.774C1.887,10.942 3.09,9.753 3.93,8.236" style="fill:rgb(234,179,8);fill-rule:nonzero;"/>
    </g>
    <g transform="matrix(1.11695,0,0,1.11695,219.304,2.57233)">
        <path d="M0,19.954L-5.398,13.599L-8.194,13.599L-8.194,19.954L-12.646,19.954L-12.646,0L-3.253,0C-1.841,0 -0.572,0.279 0.52,0.829C1.634,1.391 2.505,2.204 3.109,3.244C3.708,4.276 4.012,5.476 4.012,6.813C4.012,8.506 3.527,9.956 2.569,11.121C1.83,12.02 0.876,12.683 -0.276,13.099L5.659,19.954L0,19.954ZM16.531,19.954L8.734,19.954L8.734,0L16.531,0C18.479,0 20.237,0.416 21.757,1.236C23.29,2.066 24.494,3.255 25.335,4.772C26.167,6.278 26.589,8.029 26.589,9.977C26.589,11.925 26.167,13.676 25.335,15.181C24.495,16.697 23.292,17.887 21.757,18.718C20.236,19.538 18.479,19.954 16.531,19.954M27.351,3.658C26.291,1.747 24.778,0.252 22.852,-0.789C20.991,-1.794 18.865,-2.303 16.531,-2.303L6.432,-2.303L6.432,17.328L3.271,13.679C3.661,13.348 4.021,12.982 4.349,12.582C5.653,10.996 6.314,9.055 6.314,6.813C6.314,5.066 5.906,3.476 5.102,2.088C4.267,0.653 3.074,-0.462 1.556,-1.227C0.141,-1.941 -1.478,-2.303 -3.253,-2.303L-14.948,-2.303L-14.948,22.257L-5.892,22.257L-5.892,16.575L-1.756,21.445L-1.065,22.257L16.531,22.257C18.863,22.257 20.989,21.748 22.85,20.744C24.78,19.699 26.293,18.203 27.35,16.296C28.373,14.446 28.892,12.32 28.892,9.977C28.892,7.635 28.373,5.509 27.351,3.658" style="fill:rgb(227,6,19);fill-rule:nonzero;"/>
    </g>
    <g transform="matrix(1.11695,0,0,1.11695,239.764,10.3173)">
        <path d="M0,6.084C-0.49,6.363 -1.091,6.504 -1.786,6.504L-2.828,6.504L-2.828,-0.42L-1.786,-0.42C-1.093,-0.42 -0.492,-0.278 -0.001,0.002C0.47,0.27 0.797,0.608 1.06,1.098C1.346,1.631 1.49,2.287 1.49,3.043C1.49,3.8 1.346,4.454 1.06,4.987C0.796,5.478 0.47,5.816 0,6.084M1.14,-1.999C0.297,-2.479 -0.687,-2.723 -1.786,-2.723L-5.131,-2.723L-5.131,8.807L-1.786,8.807C-0.686,8.807 0.298,8.564 1.14,8.084C1.984,7.603 2.622,6.946 3.088,6.076C3.557,5.205 3.793,4.184 3.793,3.043C3.793,1.903 3.556,0.881 3.088,0.009C2.622,-0.861 1.984,-1.518 1.14,-1.999" style="fill:rgb(227,6,19);fill-rule:nonzero;"/>
    </g>
</svg>
